<svg width="111" height="100" viewBox="0 0 111 100" fill="none" xmlns="http://www.w3.org/2000/svg">
<mask id="mask0" mask-type="alpha" maskUnits="userSpaceOnUse" x="21" y="15" width="80" height="60">
<path d="M89.8618 49.4312C87.0649 49.4469 84.6431 50.1187 82.6118 51.1188C81.8618 49.6344 81.1118 48.3374 80.987 47.3688C80.8464 46.2438 80.6745 45.5562 80.8464 44.2126C81.0181 42.8687 81.7993 40.9624 81.7993 40.8062C81.7835 40.6655 81.6273 39.978 80.0181 39.9624C78.4089 39.9468 77.0181 40.2749 76.8618 40.6968C76.7056 41.1187 76.3931 42.0874 76.1899 43.0874C75.9087 44.5562 72.9712 49.7593 71.2993 52.4937C70.7524 51.4312 70.2837 50.4937 70.1898 49.7435C70.0493 48.6187 69.8773 47.931 70.0493 46.5874C70.2212 45.2435 71.0024 43.3374 71.0024 43.1812C70.9868 43.0405 70.8306 42.353 69.2214 42.3374C67.6118 42.3218 66.2214 42.6499 66.0651 43.0718C65.9089 43.4937 65.737 44.4937 65.3932 45.4624C65.0649 46.4312 61.1587 55.1187 60.1431 57.3843C59.6274 58.5405 59.1745 59.4624 58.8462 60.0874C58.5181 60.7124 58.8306 60.1343 58.7993 60.1968C58.5181 60.728 58.3618 61.0249 58.3618 61.0249V61.0407C58.1431 61.4313 57.9087 61.8062 57.7992 61.8062C57.721 61.8062 57.5648 60.7593 57.8304 59.3219C58.4085 56.3062 59.8148 51.6032 59.7993 51.4313C59.7993 51.3532 60.0648 50.5249 58.8929 50.1032C57.7523 49.6813 57.3462 50.3844 57.2523 50.3844C57.1585 50.3844 57.0804 50.6344 57.0804 50.6344C57.0804 50.6344 58.346 45.3377 54.6585 45.3377C52.346 45.3377 49.1585 47.8533 47.5804 50.1502C46.5804 50.6971 44.4554 51.8532 42.2054 53.0877C41.346 53.5565 40.4554 54.0565 39.6117 54.5096L39.4399 54.3218C34.9712 49.5562 26.7056 46.1812 27.0493 39.7749C27.1743 37.4468 27.9868 31.3062 42.9245 23.8687C55.1589 17.7749 64.9557 19.4468 66.6587 23.1655C69.0806 28.478 61.4243 38.353 48.7057 39.7749C43.862 40.3218 41.3149 38.4468 40.6745 37.7437C40.0026 37.0093 39.9089 36.978 39.6589 37.1187C39.2526 37.3374 39.5026 37.9937 39.6589 38.3843C40.0339 39.3687 41.5964 41.1187 44.2526 41.9937C46.5806 42.7593 52.2682 43.1812 59.1432 40.5249C66.8464 37.5405 72.862 29.2593 71.0964 22.3374C69.2995 15.2905 57.612 12.978 46.5651 16.8999C39.9868 19.2437 32.8618 22.8999 27.7368 27.6968C21.6431 33.3843 20.6743 38.353 21.0806 40.4155C22.5026 47.7749 32.6431 52.5718 36.7056 56.1187C36.5024 56.2279 36.3149 56.3373 36.1431 56.4312C34.1118 57.431 26.3774 61.478 24.4399 65.7591C22.2524 70.6029 24.7837 74.0874 26.4712 74.5562C31.6899 76.0093 37.0337 73.3999 39.9243 69.103C42.7992 64.8062 42.4556 59.228 41.1274 56.6812L41.0804 56.5874L42.6742 55.6499C43.7056 55.0405 44.7212 54.478 45.6117 53.9935C45.1118 55.3529 44.7523 56.9623 44.5649 59.306C44.3462 62.0562 45.4712 65.6185 46.9556 67.0248C47.6118 67.634 48.3931 67.6498 48.8774 67.6498C50.5962 67.6498 51.3774 66.2277 52.2368 64.5248C53.2993 62.4466 54.2368 60.0404 54.2368 60.0404C54.2368 60.0404 53.0649 66.556 56.2681 66.556C57.4399 66.556 58.6118 65.0404 59.1431 64.2591V64.2748C59.1431 64.2748 59.1743 64.2279 59.2368 64.1185C59.3024 64.0216 59.3649 63.9226 59.4243 63.8218V63.7905C59.8931 62.978 60.9399 61.1187 62.5024 58.0405C64.5179 54.0718 66.4556 49.103 66.4556 49.103C66.4556 49.103 66.6431 50.3218 67.2212 52.3218C67.5648 53.5094 68.3148 54.8062 68.8929 56.0718C68.4242 56.728 68.1429 57.1032 68.1429 57.1032L68.1585 57.1188C67.7837 57.6188 67.3617 58.1502 66.9243 58.6813C65.3306 60.5876 63.4243 62.7596 63.1743 63.3846C62.8774 64.1188 62.9399 64.6657 63.5181 65.1034C63.9399 65.4159 64.6899 65.4782 65.4868 65.4159C66.9243 65.3219 67.9243 64.9627 68.4243 64.7438C69.2056 64.4626 70.0962 64.0407 70.9556 63.4157C72.5181 62.2596 73.4712 60.619 73.3774 58.4315C73.3306 57.2283 72.9399 56.0408 72.4556 54.9158C72.5962 54.7127 72.737 54.5094 72.8774 54.2908C75.3462 50.6813 77.2524 46.7127 77.2524 46.7127C77.2524 46.7127 77.4399 47.9315 78.0181 49.9315C78.3148 50.9471 78.9087 52.0566 79.4399 53.1504C77.1274 55.041 75.6743 57.2285 75.1743 58.666C74.2524 61.3223 74.9712 62.5254 76.3306 62.8066C76.9398 62.9316 77.8149 62.6504 78.471 62.3691C79.2835 62.1035 80.2679 61.6502 81.1743 60.9785C82.7368 59.8223 84.2368 58.2129 84.1587 56.041C84.1118 55.041 83.8462 54.0566 83.4868 53.1191C85.4556 52.3066 88.0023 51.8379 91.2368 52.2285C98.1899 53.041 99.5649 57.3848 99.2995 59.1973C99.0339 61.0099 97.5807 62.0098 97.0962 62.3223C96.6118 62.6191 96.4556 62.7287 96.5024 62.9473C96.5649 63.2755 96.7837 63.2598 97.2056 63.1974C97.7837 63.1035 100.862 61.713 100.987 58.3694C101.174 54.0719 97.0962 49.3844 89.8618 49.4312ZM36.2368 67.5093C33.9399 70.0249 30.7056 70.978 29.3306 70.1655C27.8462 69.3062 28.4242 65.603 31.2524 62.9312C32.9712 61.3062 35.2056 59.8062 36.6743 58.8843C37.0024 58.6812 37.5024 58.3844 38.0962 58.0249C38.1899 57.9626 38.2524 57.9312 38.2524 57.9312C38.3618 57.8687 38.4868 57.7905 38.6118 57.7124C39.6587 61.5249 38.6587 64.8687 36.2368 67.5093ZM53.0337 56.0874C52.2368 58.0405 50.5493 63.0562 49.5337 62.7749C48.6585 62.5405 48.1274 58.7437 49.3617 54.9937C49.9867 53.1029 51.3148 50.853 52.096 49.9779C53.3618 48.5716 54.7367 48.1029 55.0806 48.681C55.4868 49.4312 53.5337 54.8687 53.0337 56.0874ZM66.8931 62.7124C66.5493 62.8844 66.2368 63.0093 66.0962 62.9157C65.9868 62.8532 66.2367 62.6188 66.2367 62.6188C66.2367 62.6188 67.971 60.7594 68.6585 59.9001C69.0492 59.4002 69.5179 58.8221 70.0179 58.1657V58.3532C70.0181 60.603 67.8618 62.103 66.8931 62.7124ZM77.5804 60.2749C77.3304 60.0874 77.3618 59.5093 78.2054 57.6968C78.5337 56.978 79.2835 55.7749 80.5804 54.6343C80.7367 55.103 80.8306 55.556 80.8148 55.978C80.7993 58.7905 78.7993 59.8374 77.5804 60.2749Z" fill="#CF649A"/>
</mask>
<g mask="url(#mask0)">
<path d="M96.4999 63.4999L100.5 58.9999L96.4999 51.9999L86.9999 49.9999C86.9999 49.9999 78.8228 51.4959 76.4999 55.4999C75.3827 57.4256 74.0455 58.9885 74.9999 60.9999C75.7896 62.6641 77.1596 63.4181 78.9999 63.4999C81.6243 63.6167 81.8733 60.8732 82.9998 58.5C85.1768 53.9137 78.9999 46.9999 78.9999 46.9999V41.5L74.4998 48C72.9998 51.5 68.4999 57.9999 66.4999 60.9999L63.4999 65.9999L70.9999 63.4999L73.4999 57.4999L66.4999 43.9999L61.4999 55.4999L57.4999 65.9999L53.9999 60.9999L57.4999 51.9999M57.4999 51.9999L56.4998 45M57.4999 51.9999C57.4999 51.9999 50.5484 68.5596 49.9998 67.5C49.4512 66.4404 47.3215 63.2191 46.4998 61.5C45.5584 59.5304 44.5876 57.6183 45.9998 55.5C47.9997 52.5001 54.443 49.4727 56.4998 45M56.4998 45C59.9258 37.981 39.6389 53.0959 33.9998 58.5C30.4056 61.9445 24.4209 63.7787 25.9999 68.4999C26.5327 70.0929 27.1414 71.012 28.4999 71.9999C31.9955 74.5422 38.9999 68.4999 38.9999 68.4999C38.9999 68.4999 40.1951 63.7435 40.9998 61.5C43.4681 54.618 30.9998 49.5 30.9998 49.5C27.4851 46.9616 24.4999 45 23.9999 40.5C23.4999 36 27.4996 32 29.4998 30.5C31.5 29 33.9553 25.9031 37.4999 23.5C44.5597 18.7139 49.999 16.8062 58.5 17.4999C62.9379 17.8621 66.1249 18.7336 68.4999 22.5C70.3746 25.473 69.5359 24.6414 68.4999 27.9999C67.0325 32.757 64.0408 34.5924 59.9999 37.4999C56.0248 40.3601 48.4999 42.4999 48.4999 42.4999C42.3912 44.3178 40.4999 36.5 40.4999 36.5" stroke="#BE4CA2" stroke-width="7"/>
</g>
</svg>
