<svg width="100%" height="100%" viewBox="0 0 135 30" fill="none"
     xmlns="http://www.w3.org/2000/svg">,
    <g id="svg">,
        <mask id="mask0" maskType="alpha" maskUnits="userSpaceOnUse" x="0" y="0"
              width="100%" height="100%">,						<path
                id="text" d="M1.22844  29.1559C0.40952  28.6982  6.07301e-05  28.072  6.07301e-05  27.2772C6.07301e-05  26.3378  0.493821  24.8686
						 1.48134 22.8694C2.49295  20.8703  3.82971  18.5701  5.49164  15.9688C4.0224  15.8484  2.72176  15.7882  1.58973  15.7882H0.32522C0.782851  14.5357  2.03532  13.9095  4.08261  13.9095C4.73293  13.9095  5.60002  13.9938                       
						 6.68389 14.1624C8.5385  11.3684  10.4172  8.74309  12.32  6.28633C14.2468  3.80549  15.7643  2.04722  16.8722  1.01153C17.5707  0.337123  18.1488  -7.94381e-05  18.6064  -7.94381e-05C19.1122  -7.94381e-05  19.7505  0.385294                       
						 20.5212 1.15604C20.0395  1.54141  19.341  3.107  18.4257  5.85278C17.5105  8.57449  16.6916  11.5611  15.969  14.8127C15.2464  18.0402  14.8851  20.6415  14.8851  22.6165C14.8851  23.58  14.9815  24.3025                       
						 15.1742 24.7843C15.3909  25.266  15.7402  25.5068  16.2219  25.5068C17.5466  25.5068  19.1242  23.7245  20.9548  20.1598L21.316  20.5211C20.5694  22.4961  19.63  24.0858  18.498  25.2901C17.39  26.4944  16.246                       
						 27.0965 15.0658  27.0965C14.1023  27.0965  13.3918  26.675  12.9342  25.832C12.4765  24.9649  12.2477  23.7727  12.2477  22.2553C12.2477  20.7138  12.4524  18.9194  12.8619  16.8721C11.3204  16.6312  9.53806                       
						 16.3903 7.51485  16.1495C5.15443  20.4849  3.05896  24.8204  1.22844  29.1559ZM13.1148  15.6076C13.6206  13.3435  14.2709  10.9951  15.0658  8.56244C15.8606  6.12977  16.6554  4.0343  17.4503  2.27603C16.3664  2.95044                       
						 15.0296 4.3715  13.44  6.53923C11.8744  8.70696  10.2125  11.3564  8.4542  14.4876C9.41763  14.6803  10.4292  14.9211  11.489  15.2101L13.1148  15.6076ZM31.9006  26.7352C31.0817  26.7352  30.4555  26.5184  30.022                       
						 26.0849C29.5884 25.6754  29.3716  25.1215  29.3716  24.423C29.3716  24.1099  29.4198  23.7486  29.5161  23.3391C29.6366  22.9056  29.757  22.4841  29.8774  22.0746C30.022  21.6411  30.1424  21.1834  30.2387                       
						 20.7017C30.3592 20.22  30.4194  19.7865  30.4194  19.4011C30.4194  18.2209  29.9377  17.6308  28.9742  17.6308C28.059  17.6308  27.0955  18.1125  26.0839  19.0759C25.0964  20.0394  24.2052  21.1112  23.4104                       
						 22.2914C22.6396 23.4716  21.7605  24.8927  20.773  26.5546C20.3635  26.5546  19.9902  26.4823  19.653  26.3378C19.3158  26.2174  19.0508  26.0247  18.8582  25.7597C18.8582  25.6393  19.0147  25.2058  19.3278                       
						 24.4591C19.93 22.9176  20.4237  21.5206  20.8091  20.2682C21.1945  18.9916  21.3992  17.8596  21.4233  16.8721C21.5919  16.6794  21.8328  16.5108  22.1459  16.3663C22.459  16.1977  22.7721  16.1134  23.0852                       
						 16.1134C23.7355 16.1134  24.0607  16.4265  24.0607  17.0527C24.0607  17.414  23.9523  18.0523  23.7355  18.9675C23.5188  19.8587  23.2418  20.8101  22.9046  21.8217C24.0607  20.0394  25.2891  18.534  26.5897                       
						 17.3056C27.8904 16.0772  29.1669  15.463  30.4194  15.463C31.3105  15.463  31.9729  15.7882  32.4065  16.4385C32.8641  17.0647  33.0929  17.8235  33.0929  18.7146C33.0929  19.2445  33.0206  19.7503  32.8761                       
						 20.232C32.7557 20.7138  32.563  21.2677  32.2981  21.894C32.0813  22.4239  31.9127  22.8815  31.7923  23.2669C31.6718  23.6522  31.6116  24.0376  31.6116  24.423C31.6116  25.3382  31.9729  25.7959  32.6955                       
						 25.7959C33.5144 25.7959  34.3574  25.2539  35.2245  24.1701C36.1157  23.0862  36.9587  21.7494  37.7535  20.1598L38.1509  20.6295C36.4167  24.7  34.3333  26.7352  31.9006  26.7352ZM43.9973  10.405C43.5638  10.405  43.2025                       
						 10.3087 42.9134  10.116C42.6485  9.89921  42.516  9.59813  42.516  9.21276C42.516  8.73104  42.805  8.2975  43.3831  7.91212C43.9612  7.52675  44.5513  7.33406  45.1534  7.33406C45.9483  7.33406  46.3457                       
						 7.70739 46.3457  8.45406C46.3457  8.91169  46.0928  9.35728  45.587  9.79082C45.1052  10.2003  44.5754  10.405  43.9973  10.405ZM39.6618  26.952C38.7707  26.952  38.0842  26.663  37.6025  26.0849C37.1208  25.5309                       
						 36.8799 24.8084  36.8799  23.9172C36.8799  22.9778  37.1449  21.6772  37.6748  20.0153C38.2287  18.3533  38.9031  16.8961  39.698  15.6437C40.5169  14.3912  41.3117  13.765  42.0825  13.765C42.2992  13.765                       
						 42.4799 13.8372  42.6244  13.9818C42.793  14.1263  42.8773  14.319  42.8773  14.5598C42.8773  14.897  42.4919  15.7039  41.7212  16.9804C40.9264  18.3052  40.2881  19.4974  39.8064  20.5572C39.3487  21.5929                       
						 39.1199 22.5804  39.1199  23.5198C39.1199  24.3628  39.2524  24.9408  39.5173  25.2539C39.8064  25.543  40.264  25.6875  40.8902  25.6875C42.7689  25.6875  44.6235  23.8449  46.4541  20.1598L46.7792  20.5211C46.1048                       
						 22.5443 45.1052  24.1219  43.7805  25.2539C42.4799  26.386  41.107  26.952  39.6618  26.952ZM63.9841  27.1326C63.1893  27.1326  62.5872  26.8797  62.1777  26.3739C61.7682  25.8922  61.5635  25.266  61.5635                       
						 24.4952C61.5635 23.8449  61.7562  22.8935  62.1416  21.6411C62.262  21.2316  62.3704  20.8221  62.4667  20.4127C62.5872  20.0032  62.6474  19.654  62.6474  19.3649C62.6474  18.9314  62.539  18.6062  62.3222                       
						 18.3895C62.1295 18.1727  61.8887  18.0643  61.5996  18.0643C61.0457  18.0643  60.4435  18.4617  59.7932  19.2566C59.167  20.0273  58.1915  21.4243  56.8668  23.4475C56.5296  23.9774  56.0599  24.8686  55.4577                       
						 26.121L55.1326 26.8075C54.7472  26.8075  54.3378  26.7352  53.9042  26.5907C53.4947  26.4703  53.29  26.3017  53.29  26.0849C53.29  25.9163  53.4947  25.278  53.9042  24.1701C54.41  22.6768  54.8074  21.4243                       
						 55.0965 20.4127C55.4096  19.377  55.5661  18.4979  55.5661  17.7753C55.5661  16.86  55.2651  16.4024  54.6629  16.4024C53.9885  16.4024  53.1094  16.9443  52.0255  18.0282C50.9657  19.112  49.918  20.4849                       
						 48.8823 22.1469C47.8466  23.7847  47.0397  25.3985  46.4617  26.9881C46.1004  26.9881  45.6909  26.9038  45.2333  26.7352C44.7516  26.5666  44.5107  26.398  44.5107  26.2294C44.5107  26.1572  44.6793  25.5911                       
						 45.0165 24.5314C45.5705  22.9176  46.0281  21.4363  46.3894  20.0875C46.7748  18.7387  46.9795  17.5706  47.0036  16.583C47.1722  16.3903  47.4131  16.2217  47.7262  16.0772C48.0393  15.9086  48.3524  15.8243                       
						 48.6655 15.8243C49.3159  15.8243  49.641  16.1374  49.641  16.7637C49.641  17.414  49.3279  18.7869  48.7017  20.8824C49.8819  19.0037  51.1464  17.3899  52.4952  16.0411C53.8681  14.6923  55.1446  14.0179                       
						 56.3248 14.0179C57.0233  14.0179  57.5171  14.2708  57.8061  14.7766C58.1192  15.2824  58.2758  15.9448  58.2758  16.7637C58.2758  17.5826  58.1554  18.4738  57.9145  19.4372C57.6736  20.4006  57.4207  21.2075                       
						 57.1558 21.8578C58.0711  20.1959  59.0225  18.8591  60.01  17.8475C60.9975  16.8118  62.0452  16.294  63.1532  16.294C63.8758  16.294  64.3936  16.5108  64.7067  16.9443C65.0439  17.3779  65.2125  17.9318                       
						 65.2125 18.6062C65.2125  19.0639  65.1523  19.5576  65.0319  20.0875C64.9114  20.5933  64.7308  21.2196  64.4899  21.9662C64.0805  23.2428  63.8758  24.1339  63.8758  24.6398C63.8758  25.4587  64.237  25.8681                       
						 64.9596 25.8681C65.8508  25.8681  66.6938  25.3262  67.4886  24.2423C68.2835  23.1344  69.0542  21.7735  69.8009  20.1598L70.2344  20.6656C69.56  22.4479  68.6809  23.9774  67.597  25.2539C66.5132  26.5064  65.3089                       
						 27.1326 63.9841  27.1326ZM70.8661  27.7107C70.0713  27.7107  69.433  27.4458  68.9513  26.9159C68.4455  26.4101  68.1926  25.6754  68.1926  24.712C68.1926  23.2909  68.6984  21.7013  69.71  19.943C70.7457  18.1847                       
						 72.0463 16.6914  73.6119  15.463C75.1775  14.2347  76.7069  13.6205  78.2002  13.6205C79.1396  13.6205  79.9224  13.8734  80.5486  14.3792C81.1749  14.885  81.488  15.5353  81.488  16.3301C81.488  16.8841                       
						 81.3314 17.2815  81.0183  17.5224C80.7052  17.7632  80.2716  17.8837  79.7177  17.8837C79.8381  17.4501  79.8983  17.0286  79.8983  16.6192C79.8983  16.017  79.7538  15.5353  79.4648  15.174C79.1757  14.7886                       
						 78.7301 14.5959  78.128  14.5959C77.0682  14.5959  75.9482  15.1861  74.768  16.3663C73.6119  17.5465  72.6364  18.9555  71.8416  20.5933C71.0708  22.2312  70.6855  23.6402  70.6855  24.8204C70.6855  25.7597                       
						 71.0106 26.2294  71.6609  26.2294C72.6244  26.2294  73.7564  25.4707  75.057  23.9533C76.3577  22.4118  77.7547  20.5452  79.248  18.3533C79.5611  18.4015  79.8742  18.5099  80.1873  18.6785C80.5245  18.823                       
						 80.6931 19.0157  80.6931  19.2566C80.6931  19.4492  80.5727  19.7624  80.3318  20.1959C80.1151  20.6054  79.9826  20.8462  79.9344  20.9185C79.525  21.617  79.1998  22.2432  78.959  22.7972C78.7181  23.3271                       
						 78.5977 23.8208  78.5977  24.2785C78.5977  24.6879  78.694  25.0613  78.8867  25.3985C79.1035  25.7116  79.4166  25.8681  79.826  25.8681C80.5245  25.8681  81.4037  25.3744  82.4634  24.3869C83.5232  23.3752                       
						 84.571 21.9662  85.6066  20.1598L85.9679  20.5211C85.4621  21.7976  84.8118  22.9417  84.017  23.9533C83.2221  24.9408  82.3671  25.7116  81.4518  26.2655C80.5366  26.8195  79.6574  27.0965  78.8144  27.0965C77.9714                       
						 27.0965 77.3211  26.8436  76.8635  26.3378C76.4299  25.8561  76.2132  25.266  76.2132  24.5675C76.2132  24.2544  76.2493  23.9051  76.3216  23.5198C75.2377  24.9649  74.2622  26.0247  73.3951  26.6991C72.5521                       
						 27.3735 71.7091  27.7107  70.8661  27.7107ZM87.9386  27.6746C85.795  27.6746  84.7232  26.4823  84.7232  24.0978C84.7232  23.0621  84.9038  21.7856  85.2651  20.2682C85.6505  18.7267  86.1683  17.1009  86.8187                       
						 15.3908C86.2406 15.2944  85.8071  15.1981  85.518  15.1018V14.4514C86.3851  14.5478  86.915  14.5959  87.1077  14.5959C88.1675  11.8502  89.2995  9.47771  90.5038  7.47858C91.7322  5.45537  92.6956  4.44376  93.3941                       
						 4.44376C93.5868 4.44376  93.7554  4.51602  93.8999  4.66053C94.0685  4.80505  94.1528  4.99774  94.1528  5.23859C94.1528  5.55171  93.9962  6.00934  93.6831  6.61149C93.3941  7.21363  92.8883  8.14094  92.1657                       
						 9.3934C92.0453 9.63426  91.672  10.3087  91.0457  11.4166C90.4195  12.5005  89.8535  13.5964  89.3477  14.7043H90.6844C92.6836  14.7043  94.4057  14.6321  95.8509  14.4876V15.1379C93.2255  15.4269  91.1059  15.5714  89.4922                       
						 15.5714H88.9503C87.6255 18.6062  86.9632  21.2316  86.9632  23.4475C86.9632  24.4832  87.1197  25.2299  87.4328  25.6875C87.746  26.121  88.2638  26.3378  88.9864  26.3378C90.2148  26.3378  91.4311  25.7959  92.6354                       
						 24.712C93.8397 23.6041  94.9115  22.0867  95.8509  20.1598L96.3205  20.5211C95.4293  22.6165  94.2251  24.3387  92.7076  25.6875C91.1902  27.0122  89.6006  27.6746  87.9386  27.6746ZM102.107  10.405C101.673  10.405  101.312                       
						 10.3087 101.023  10.116C100.758  9.89921  100.625  9.59813  100.625  9.21276C100.625  8.73104  100.915  8.2975  101.493  7.91212C102.071  7.52675  102.661  7.33406  103.263  7.33406C104.058  7.33406  104.455                       
						 7.70739 104.455  8.45406C104.455  8.91169  104.202  9.35728  103.696  9.79082C103.215  10.2003  102.685  10.405  102.107  10.405ZM97.7713  26.952C96.8801  26.952  96.1937  26.663  95.712  26.0849C95.2303  25.5309                       
						 94.9894 24.8084  94.9894  23.9172C94.9894  22.9778  95.2544  21.6772  95.7842  20.0153C96.3382  18.3533  97.0126  16.8961  97.8075  15.6437C98.6264  14.3912  99.4212  13.765  100.192  13.765C100.409  13.765                       
						 100.589 13.8372  100.734  13.9818C100.902  14.1263  100.987  14.319  100.987  14.5598C100.987  14.897  100.601  15.7039  99.8307  16.9804C99.0358  18.3052  98.3976  19.4974  97.9158  20.5572C97.4582  21.5929                       
						 97.2294 22.5804  97.2294  23.5198C97.2294  24.3628  97.3619  24.9408  97.6268  25.2539C97.9158  25.543  98.3735  25.6875  98.9997  25.6875C100.878  25.6875  102.733  23.8449  104.564  20.1598L104.889  20.5211C104.214                       
						 22.5443 103.215  24.1219  101.89  25.2539C100.589  26.386  99.2165  26.952  97.7713  26.952ZM106.378  27.1688C105.39  27.1688  104.667  26.8677  104.21  26.2655C103.752  25.6634  103.523  24.8686  103.523                       
						 23.881C103.523 22.8935  103.728  21.8578  104.138  20.774C104.547  19.6901  105.077  18.7869  105.727  18.0643C106.378  17.3417  107.028  16.9804  107.678  16.9804C107.895  16.9804  108.148  17.0407  108.437                       
						 17.1611C108.148 17.402  107.799  17.9318  107.389  18.7508C106.98  19.5697  106.618  20.4488  106.305  21.3882C106.016  22.3034  105.872  23.0501  105.872  23.6281C105.872  25.001  106.305  25.6875  107.172                       
						 25.6875C107.678 25.6875  108.28  25.4225  108.979  24.8927C109.677  24.3628  110.364  23.6643  111.038  22.7972C110.364  22.2432  109.834  21.5206  109.449  20.6295C109.087  19.7383  108.907  18.811  108.907                       
						 17.8475C108.907 16.5951  109.22  15.5233  109.846  14.6321C110.496  13.7409  111.363  13.2953  112.447  13.2953C113.362  13.2953  114.001  13.5482  114.362  14.054C114.747  14.5357  114.94  15.2101  114.94                       
						 16.0772C114.94 16.9925  114.711  18.0282  114.254  19.1843C113.82  20.3163  113.242  21.4243  112.519  22.5082C112.953  22.749  113.411  22.8694  113.892  22.8694C114.591  22.8694  115.313  22.6647  116.06                       
						 22.2553C116.807 21.8217  117.373  21.1593  117.758  20.2682L118.192  20.6295C117.734  21.6892  117.084  22.472  116.241  22.9778C115.398  23.4836  114.531  23.7365  113.639  23.7365C112.989  23.7365  112.411  23.6161                       
						 111.905 23.3752C111.038  24.5073  110.111  25.4225  109.123  26.121C108.16  26.8195  107.245  27.1688  106.378  27.1688ZM111.689  21.8578C112.315  20.9185  112.821  19.9671  113.206  19.0037C113.591  18.0161  113.784                       
						 17.1129 113.784  16.294C113.784  15.6196  113.676  15.1138  113.459  14.7766C113.266  14.4394  113.013  14.2708  112.7  14.2708C112.363  14.2708  112.014  14.4394  111.652  14.7766C111.315  15.0897  111.026                       
						 15.5353 110.785  16.1134C110.569  16.6673  110.46  17.2815  110.46  17.9559C110.46  18.7026  110.556  19.4252  110.749  20.1237C110.966  20.7981  111.279  21.3761  111.689  21.8578ZM128.75  26.7352C127.931  26.7352                       
						 127.305 26.5184  126.871  26.0849C126.438  25.6754  126.221  25.1215  126.221  24.423C126.221  24.1099  126.269  23.7486  126.365  23.3391C126.486  22.9056  126.606  22.4841  126.727  22.0746C126.871  21.6411                       
						 126.992 21.1834  127.088  20.7017C127.208  20.22  127.268  19.7865  127.268  19.4011C127.268  18.2209  126.787  17.6308  125.823  17.6308C124.908  17.6308  123.945  18.1125  122.933  19.0759C121.946  20.0394                       
						 121.054 21.1112  120.26  22.2914C119.489  23.4716  118.61  24.8927  117.622  26.5546C117.213  26.5546  116.839  26.4823  116.502  26.3378C116.165  26.2174  115.9  26.0247  115.707  25.7597C115.707  25.6393                       
						 115.864 25.2058  116.177  24.4591C116.779  22.9176  117.273  21.5206  117.658  20.2682C118.044  18.9916  118.248  17.8596  118.272  16.8721C118.441  16.6794  118.682  16.5108  118.995  16.3663C119.308  16.1977                       
						 119.621 16.1134  119.934  16.1134C120.585  16.1134  120.91  16.4265  120.91  17.0527C120.91  17.414  120.801  18.0523  120.585  18.9675C120.368  19.8587  120.091  20.8101  119.754  21.8217C120.91  20.0394                       
						 122.138 18.534  123.439  17.3056C124.739  16.0772  126.016  15.463  127.268  15.463C128.16  15.463  128.822  15.7882  129.256  16.4385C129.713  17.0647  129.942  17.8235  129.942  18.7146C129.942  19.2445                       
						 129.87 19.7503  129.725  20.232C129.605  20.7138  129.412  21.2677  129.147  21.894C128.93  22.4239  128.762  22.8815  128.641  23.2669C128.521  23.6522  128.461  24.0376  128.461  24.423C128.461  25.3382                       
						 128.822 25.7959  129.545  25.7959C130.364  25.7959  131.207  25.2539  132.074  24.1701C132.965  23.0862  133.808  21.7494  134.603  20.1598L135  20.6295C133.266  24.7  131.182  26.7352  128.75  26.7352Z  "
                fill="black">,</path>,
        </mask>
        ,
        <g mask="url(#mask0)">,						<path id="svg-dash-array"
                                                             className="dash-array"
                                                             d="M135.655  18.9081C133.969  21.8644  130.466  27.7185  129.938  27.4838C129.278
						 27.1905 128.692  26.5309  128.106  26.2377C127.519  25.9445  129.791  15.2432  128.472  15.9761C127.153  16.7091  114.399  29.3893  114.985  28.07C115.454  27.0145  117.82  20.1539  118.943  16.8556L114.326                       
						 23.6722L109.048 17.8817C109.219  15.8783  109.869  12.0327  111.101  12.6777C112.332  13.3227  113.617  13.8748  114.106  14.0702C113.544  17.8083  112.097  25.4166  110.807  25.9443C109.195  26.604  105.603  30.562                       
						 105.017 27.4102C104.431  24.2585  105.97  15.5361  106.19  15.9026C106.366  16.1958  101.279  24.1852  98.7136  28.1432C97.101  27.7767  94.008  26.604  94.5357  24.8448C95.0634  23.0857  97.4432  16.489                       
						 98.5671 13.4105L88.5254  28.0699C87.1817  27.4591  84.5381  26.0176  84.714  25.138C84.8899  24.2585  90.1135  11.627  92.7033  5.42119C93.9249  9.11049  96.2508  16.4305  95.7817  16.1959C95.3126  15.9614  88.2077                       
						 15.3652 84.7139  15.0965L85.8134  23.7455C84.3474  24.4296  81.269  25.8271  80.6826  25.9444C79.9496  26.091  75.6985  24.9182  76.065  24.2586C76.3582  23.7308  78.5815  20.4716  79.6565  18.9079C75.5518  22.304                       
						 67.4159 29.0082  67.7091  28.6564C68.0023  28.3045  70.1767  21.571  71.2273  18.2482C73.9393  16.147  79.3632  12.062  79.3632  12.5311C79.3632  13.1174  80.6826  15.4629  80.4627  16.5624C80.2868  17.442                       
						 70.9097 21.7665  66.2431  23.8188L64.2642  25.7978L62.8715  18.3948C63.238  18.0039  63.4873  17.3247  61.5523  17.7351C59.1335  18.2482  54.7358  22.646  54.5159  24.2586C54.296  25.8711  53.9294  27.9967  54.076                       
						 26.8239C54.1933 25.8857  55.3954  18.0772  55.9818  14.2902L46.2334  22.7193L48.2858  16.1959L40.1498  25.8711L41.3225  16.2692C39.3679  19.0545  33.0223  26.0363  32.3773  26.3295C31.7323  26.6227  30.7189  19.3965  29.1552  16.4158L18.2741                       
						 26.8501L22.9982 16.8556C19.2112  20.2028  11.6664  26.736  11.7837  26.091C11.901  25.446  16.7678  8.0844  19.1866  -0.515754L-0.017151  28.2899L2.9879  14.5834L14.3489  15.976C24.415  13.5328  44.6645  8.64633  45.1336  8.64633  "
                                                             stroke="black"
                                                             strokeWidth="6"
                                                             strokeLinecap="round"
                                                             strokeLinejoin="round">
            ,</path>,
        </g>
        ,
    </g>
    ,
</svg>